<mxfile host="app.diagrams.net" modified="2023-11-24T12:30:47.197Z" agent="Mozilla/5.0 (Macintosh; Intel Mac OS X 10_15_7) AppleWebKit/537.36 (KHTML, like Gecko) Chrome/119.0.0.0 Safari/537.36" version="22.1.3" etag="u0XvAApu3HD_PDJmRx1h" type="github">
  <diagram name="Page-1" id="NlbNV3icx9XYd9vGZB9m">
    <mxGraphModel>
      <root>
        <mxCell id="0" />
        <mxCell id="1" parent="0" />
      </root>
    </mxGraphModel>
  </diagram>
</mxfile>
